<?xml version="1.0" ?><!DOCTYPE svg  PUBLIC '-//W3C//DTD SVG 1.1//EN'  'http://www.w3.org/Graphics/SVG/1.1/DTD/svg11.dtd'><svg enable-background="new 0 0 24 24" height="24px" id="Layer_1" version="1.1" viewBox="0 0 24 24" width="24px" xml:space="preserve" xmlns="http://www.w3.org/2000/svg" xmlns:xlink="http://www.w3.org/1999/xlink" fill="white"><path d="M19.7,0.5H4.3c-2.1,0-3.8,1.7-3.8,3.8v15.4c0,2.1,1.7,3.8,3.8,3.8h15.4c2.1,0,3.8-1.7,3.8-3.8V4.3  C23.5,2.2,21.8,0.5,19.7,0.5z M19.1,10.1l-4.5,4.5c-0.1,0.1-0.2,0.1-0.3,0.1c-0.1,0-0.2,0-0.3-0.1l-2.1-2.1l-0.3-0.3l-1.8-1.8  l-4.1,4.1c-0.1,0.1-0.2,0.1-0.3,0.1s-0.2,0-0.3-0.1c-0.2-0.2-0.2-0.5,0-0.7l4.5-4.5c0.2-0.2,0.5-0.2,0.7,0l2.1,2.1l0.3,0.3l1.8,1.8  l4.1-4.1c0.2-0.2,0.5-0.2,0.7,0C19.3,9.6,19.3,9.9,19.1,10.1z"/></svg>